# xmcd CD database file
#
# Track frame offsets:
#	150
#	33072
#	54207
#	76720
#	95700
#	126850
#	144445
#	160552
#	183680
#	206445
#	231137
#
# Disc length: 3279 seconds
#
# Revision: 31
# Processed by: cddbd v1.5.2PL0 Copyright (c) Steve Scherf et al.
# Submitted via: CDex 1.79
#
DISCID=820ccd0b,840cd00b
DTITLE=Chris Rea - Auberge
DYEAR=1991
DGENRE=Blues
TTITLE0=Auberge
TTITLE1=Gone Fishing
TTITLE2=You're Not A Number
TTITLE3=Heaven
TTITLE4=Set Me Free
TTITLE5=Red Shoes
TTITLE6=Sing A Song Of Love To Me
TTITLE7=Every Second Counts
TTITLE8=Looking For The Summer
TTITLE9=And You My Love
TTITLE10=The Mention Of Your Name
EXTD=YEAR: 1991
EXTT0=
EXTT1=
EXTT2=
EXTT3=
EXTT4=
EXTT5=
EXTT6=
EXTT7=
EXTT8=
EXTT9=
EXTT10=
PLAYORDER=
